<svg xmlns="http://www.w3.org/2000/svg" id="Ebene_1" data-name="Ebene 1" viewBox="0 0 762 762"><defs><style>      .cls-1 {        fill: #f39237;      }      .cls-1, .cls-2 {        stroke-width: 0px;      }      .cls-2 {        fill: #fff;      }    </style></defs><path class="cls-2" d="M377.1,527c-36.4,0-64.8-11-84.4-32.6-18.9-21.5-28.4-49.2-28.4-82.3v-90.5l-8.7,5-8.3,4.7c-1.4.9-3.2,1.3-4.9,1.3s-3.4-.4-4.9-1.3c-3-1.7-4.9-4.9-4.9-8.4v-29.8c0-3.5,1.9-6.6,4.9-8.4l2.7-1.6,94.4-54.5,10.9-6.3,14.6-8.5,14.9-9.1c1.5-.9,3.3-1.4,5-1.4s3.4.4,4.9,1.3l17.6,10.2,8.3,4.8c2.3,1.4,3.9,3.6,4.5,6.1h.4c1.7,0,3.4.4,4.9,1.3l2.7,1.6,6.4,3.7v-2.8c0-5.4,4.3-9.7,9.7-9.7h25.8c5.4,0,9.7,4.3,9.7,9.7v28.9l20.9,12.1,1.3.7,20.5,11.9,2.7,1.6c3,1.8,4.9,4.9,4.9,8.4v29.8c0,3.4-1.9,6.6-4.9,8.4,0,0-.2,0-.3.2l4.3,2.5c3.8,2.1,5.7,6.6,4.6,11-1.2,4.3-5,7.2-9.4,7.2h-25.9v55.3c0,33.9-10.1,62.5-30.2,85.1-20.3,22.9-49.6,34.5-86.7,34.5h.2Z"></path><polygon class="cls-1" points="390.1 250.4 398.3 255.1 457.3 289.1 487 306.3 507.5 318.1 515.8 322.9 515.8 313.5 515.8 296.3 515.8 293.1 513 291.6 492.4 279.6 491.2 279 465.4 264.1 465.4 234.9 465.4 229.4 459.9 229.4 445.1 229.4 439.6 229.4 439.6 234.9 439.6 249.2 418.7 237.1 416 235.5 413.2 237.1 398.3 245.7 390.1 250.4"></polygon><polygon class="cls-1" points="370.8 248.8 385.7 240.2 406.1 228.1 397.9 223.2 383 214.6 380.3 213.1 365.4 222.1 350.5 230.8 339.5 237 245.2 291.6 242.4 293.1 242.4 296.3 242.4 313.5 242.4 322.9 250.7 318.1 359.9 255.1 370.8 248.8"></polygon><path class="cls-1" d="M502,332.2l-34.9-20.2-2.6-1.4-2.6,1.4h-.2l-.3.2-15.2,8.9-19.5,11.2-17.8,10.2h34.6v63.7c0,20.3-5.4,37.6-16.3,51.5-10.3,13-27.2,19.7-50.2,19.7s-18-1.3-25.3-3.7c-7.2-2.5-13.1-5.7-17.6-9.8s-8.3-9.1-11.3-15c-3.1-6-5.1-12.3-6.3-18.6-1.3-6.6-1.9-13.9-1.9-21.6v-109.9l-8.3,4.8-29.7,17.1-2.7,1.6v90c0,30.7,8.8,56.3,26.1,75.9,17.6,19.5,43.5,29.4,77.1,29.4s61-10.5,79.4-31.2c18.4-20.8,27.8-47.3,27.8-78.6v-65.1h35.6l-17.8-10.2h0Z"></path></svg>