<?xml version="1.0" encoding="UTF-8"?>
<svg xmlns="http://www.w3.org/2000/svg" id="Ebene_1" data-name="Ebene 1" version="1.1" viewBox="0 0 1748 622">
  <defs>
    <style>
      .cls-1 {
        fill: #f29136;
      }

      .cls-1, .cls-2 {
        stroke-width: 0px;
      }

      .cls-2 {
        fill: #000;
      }
    </style>
  </defs>
  <g>
    <path class="cls-1" d="M575,179.7c15.8,0,27.1,4.6,33.6,13.8,6.6,9.2,9.8,24.8,9.8,46.9s-4.4,37.9-13.2,47.8c-8.8,9.9-23,14.9-42.7,14.9s-21.9-.6-31.7-1.7c-9.8-1.1-18.4-2.8-25.9-5v-155.3h36v47.3c5.4-2.7,11.1-4.8,16.9-6.4,5.8-1.5,11.6-2.3,17.2-2.3ZM582.5,240.5c0-11.7-1.2-19.3-3.6-22.9-2.4-3.6-8-5.4-16.8-5.4s-7.3.3-10.9,1c-3.6.6-7,1.5-10.2,2.6v52.6c2.4.5,5.1.8,8.2,1.1s6.6.4,10.8.4c9.6,0,15.8-1.8,18.5-5.4,2.7-3.6,4.1-11.6,4.1-23.9Z"></path>
    <path class="cls-1" d="M664.4,303.1c-12.2,0-21.1-3-26.8-9.1-5.7-6.1-8.5-15.7-8.5-28.8s3.4-22.9,10.2-28.3c6.8-5.4,18.5-8.2,35.2-8.2s7.8.2,11.9.6c4.1.4,7.6.9,10.7,1.6v-8.6c0-3.8-1.7-6.7-4.9-8.5-3.3-1.8-8.3-2.8-15-2.8s-14.5.2-20.5.6c-6,.4-11.5,1.1-16.4,2v-29.5c5.9-1.4,12.8-2.5,20.6-3.2,7.8-.7,17-1.1,27.4-1.1,14.7,0,25.9,3.3,33.5,9.8,7.6,6.6,11.4,16.2,11.4,29v82.1h-33.6l-1.2-10.1h-.7c-5,3.8-10.4,6.9-16.3,9.1-5.9,2.2-11.5,3.4-16.8,3.4ZM679.3,252.5c-6.4,0-10.7.7-13,2-2.2,1.4-3.4,4.2-3.4,8.5s.9,6.8,2.8,8.3c1.8,1.5,5.1,2.3,9.7,2.3s7.2-.5,11-1.4c3.8-1,7.4-2.2,10.6-3.6v-14.6c-1.9-.5-4.3-.8-7.2-1.1-2.9-.2-6.4-.4-10.6-.4Z"></path>
    <path class="cls-1" d="M792.3,303.1c-13.4,0-23.5-3.3-30.1-10-6.6-6.6-10-16.7-10-30.1v-80.9h36v76.1c0,4,1.2,6.9,3.6,8.6,2.4,1.8,6.2,2.6,11.5,2.6s6.3-.2,9.7-.7c3.4-.5,6.9-1.2,10.4-2.2v-84.5h36v118.6h-33.6l-1-6.5h-.5c-5.6,2.7-11.2,4.9-16.9,6.5-5.7,1.6-10.8,2.4-15.2,2.4Z"></path>
    <path class="cls-2" d="M541,508.7h-36v-155.1h31.7l1.9,11h.5c4.3-4.5,9.5-7.8,15.5-10.1,6-2.2,12.8-3.4,20.5-3.4,15.7,0,26.9,4.7,33.5,14.2,6.6,9.4,10,25.3,10,47.5s-4.2,37.3-12.6,47.1c-8.4,9.8-22,14.6-40.9,14.6s-9-.3-13.1-.8c-4.1-.6-7.7-1.3-10.9-2.3v37.2ZM582.5,412.9c0-12-1.3-19.9-3.8-23.6-2.6-3.8-8.1-5.6-16.6-5.6s-8,.3-11.6,1c-3.6.6-6.8,1.6-9.5,2.9v50.7c2.4,1.1,5.2,1.9,8.3,2.4,3.1.5,6.7.7,10.7.7,9.8,0,16-1.7,18.6-5.2,2.6-3.4,4-11.2,4-23.2Z"></path>
    <path class="cls-2" d="M670.9,472.2h-36v-118.6h33.6l1.2,9.1h.5c5.8-3.5,11.6-6.2,17.6-8,6-1.8,11.6-2.8,16.9-2.8h1.9v34.8c-1.4-.3-3-.5-4.7-.6-1.7,0-3.8-.1-6.4-.1-4.6,0-9,.3-13.2.8-4.2.6-8,1.4-11.5,2.5v82.8Z"></path>
    <path class="cls-2" d="M833.6,412.9c0,22.2-4.5,38.1-13.4,47.5-9,9.4-24,14.2-45.1,14.2s-36.2-4.7-45.1-14.2c-9-9.4-13.4-25.3-13.4-47.5s4.5-38.1,13.4-47.5c9-9.4,24-14.2,45.1-14.2s36.2,4.7,45.1,14.2c9,9.4,13.4,25.3,13.4,47.5ZM752.4,412.4c0,12.2,1.3,20,4,23.5,2.6,3.5,8.8,5.3,18.6,5.3s16-1.8,18.6-5.3c2.6-3.5,4-11.4,4-23.5s-1.3-20-4-23.5c-2.6-3.5-8.8-5.3-18.6-5.3s-16,1.8-18.6,5.3c-2.6,3.5-4,11.4-4,23.5Z"></path>
    <path class="cls-2" d="M923.5,312.6h36v159.6h-31.9l-1.9-11h-.7c-4.3,4.5-9.4,7.8-15.4,10.1-5.9,2.2-12.6,3.4-20.2,3.4-15.7,0-26.9-4.7-33.5-14.2-6.6-9.4-10-25.3-10-47.5s4.2-37.3,12.6-47.1c8.4-9.8,22-14.6,40.9-14.6s9,.3,13.1.8c4.1.6,7.7,1.3,10.9,2.3v-41.8ZM904.6,383.6c-9.6,0-15.8,1.8-18.5,5.4-2.7,3.6-4.1,11.6-4.1,23.9s1.2,19.3,3.6,22.9c2.4,3.6,8,5.4,16.8,5.4s8-.3,11.6-1c3.6-.6,6.8-1.6,9.5-2.9v-50.7c-2.4-1.1-5.2-1.9-8.3-2.4-3.1-.5-6.7-.7-10.7-.7Z"></path>
    <path class="cls-2" d="M1019.6,474.6c-13.4,0-23.5-3.3-30.1-10-6.6-6.6-10-16.7-10-30.1v-80.9h36v76.1c0,4,1.2,6.9,3.6,8.6,2.4,1.8,6.2,2.6,11.5,2.6s6.3-.2,9.7-.7c3.4-.5,6.9-1.2,10.4-2.2v-84.5h36v118.6h-33.6l-1-6.5h-.5c-5.6,2.7-11.2,4.9-16.9,6.5-5.7,1.6-10.8,2.4-15.2,2.4Z"></path>
    <path class="cls-2" d="M1143.1,426.1v46.1h-36v-159.6h36v85.7h5.5l30-44.7h42.7l-41.8,57.1,44.2,61.5h-43.9l-31.2-46.1h-5.5Z"></path>
    <path class="cls-2" d="M1243.7,383.6h-13.9v-30h15.1l4.6-27.6h30.3v27.6h33.6v30h-33.6v46.1c0,4.5,1.2,7.5,3.5,9,2.3,1.5,6.9,2.3,13.8,2.3s5.4-.2,8.9-.6c3.5-.4,6.5-.8,8.9-1.3v30.7c-2.6,1.1-6.5,2.2-11.9,3.2-5.4,1-10.1,1.6-14.3,1.6-16,0-27.5-3.4-34.5-10.2-7-6.8-10.4-17.9-10.4-33.3v-47.5Z"></path>
    <path class="cls-2" d="M1364.6,472.2h-34.8v-33.1h34.8v33.1Z"></path>
    <path class="cls-2" d="M1470,436v29.8c-3.8,2.4-10.1,4.5-18.7,6.2-8.6,1.8-17.5,2.6-26.6,2.6-17.3,0-29.4-4.6-36.4-13.8-7-9.2-10.4-25.2-10.4-47.9s4.5-38.7,13.4-47.9c9-9.2,24.6-13.8,47.1-13.8s10.3.1,14.7.4c4.3.2,9,.7,13.9,1.3v31.9c-7.8-.6-13.5-1-17-1.1-3.5,0-7.4-.1-11.5-.1-11,0-17.9,1.6-20.5,4.7-2.6,3.1-4,11.3-4,24.6s1.1,19.7,3.2,23c2.2,3.4,7.2,5,15,5s13.1-.5,20-1.4c7-1,12.9-2.2,17.9-3.6Z"></path>
    <path class="cls-2" d="M1521.4,472.2h-36v-159.6h36v49.5c5.9-3.4,12-6,18.4-7.9,6.3-1.9,12.4-2.9,18.1-2.9,13.4,0,23.5,3.2,30.1,9.6,6.6,6.4,10,16.2,10,29.3v82.1h-36v-77.3c0-4-1.2-6.9-3.6-8.6-2.4-1.8-6.2-2.6-11.5-2.6s-8.2.4-12.7,1.1c-4.5.7-8.7,1.6-12.7,2.8v84.7Z"></path>
  </g>
  <g>
    <polygon class="cls-1" points="299.4 168.3 309.9 174.4 385.5 217.9 423.6 240 450 255.2 460.6 261.3 460.6 249.1 460.6 227.1 460.6 223.1 457 221 430.6 205.8 429.1 204.9 396 185.8 396 148.4 396 141.4 389 141.4 369.9 141.4 362.9 141.4 362.9 148.4 362.9 166.6 336 151.1 332.5 149.1 329 151.1 309.9 162.2 299.4 168.3"></polygon>
    <polygon class="cls-1" points="274.7 166.2 293.8 155.2 319.9 139.5 309.4 133.4 290.3 122.4 286.8 120.3 267.7 132 248.6 143 234.5 151.1 113.5 221 110 223.1 110 227.1 110 249.1 110 261.3 120.6 255.2 260.6 174.4 274.7 166.2"></polygon>
    <path class="cls-1" d="M443,273.1l-44.8-25.8-3.3-1.9-3.4,1.7h-.2c0,0-.3.3-.3.3l-19.6,11.3-25,14.4-22.8,13.1h44.3v81.7c0,26-7,48.3-20.8,66.1-13.2,16.7-34.9,25.2-64.4,25.2s-23.1-1.6-32.5-4.8c-9.3-3.2-16.9-7.4-22.6-12.5-5.8-5.2-10.7-11.7-14.5-19.2-3.9-7.7-6.6-15.7-8.1-23.9-1.6-8.5-2.4-17.8-2.4-27.7v-141l-10.6,6.1-38.1,22-3.5,2v115.5c0,39.4,11.2,72.2,33.4,97.4,22.6,25,55.8,37.7,98.8,37.7s78.2-13.5,101.8-40c23.6-26.6,35.6-60.6,35.6-100.8v-83.5h45.6l-22.8-13.1Z"></path>
  </g>
</svg>
