<?xml version="1.0" encoding="UTF-8" standalone="no"?>
<svg
   height="194.22008"
   viewBox="0 0 600 194.22008"
   width="600"
   version="1.1"
   id="svg1105"
   sodipodi:docname="Twint 2016 2.svg"
   inkscape:version="1.1.1 (c3084ef, 2021-09-22)"
   xmlns:inkscape="http://www.inkscape.org/namespaces/inkscape"
   xmlns:sodipodi="http://sodipodi.sourceforge.net/DTD/sodipodi-0.dtd"
   xmlns="http://www.w3.org/2000/svg"
   xmlns:svg="http://www.w3.org/2000/svg">
  <defs
     id="defs1109" />
  <sodipodi:namedview
     id="namedview1107"
     pagecolor="#ffffff"
     bordercolor="#666666"
     borderopacity="1.0"
     inkscape:pageshadow="2"
     inkscape:pageopacity="0.0"
     inkscape:pagecheckerboard="0"
     showgrid="false"
     fit-margin-top="0"
     fit-margin-left="0"
     fit-margin-right="0"
     fit-margin-bottom="0"
     inkscape:zoom="0.35355339"
     inkscape:cx="356.38182"
     inkscape:cy="4.2426407"
     inkscape:window-width="1323"
     inkscape:window-height="783"
     inkscape:window-x="104"
     inkscape:window-y="25"
     inkscape:window-maximized="0"
     inkscape:current-layer="g1103" />
  <radialGradient
     id="a"
     cx="13.392267"
     cy="1.7891659"
     gradientTransform="scale(0.95789355,1.0439573)"
     r="21.409054"
     fx="13.392267"
     fy="1.7891659"
     gradientUnits="userSpaceOnUse">
    <stop
       offset="0"
       stop-color="#fc0"
       id="stop1045" />
    <stop
       offset=".09157"
       stop-color="#ffc800"
       id="stop1047" />
    <stop
       offset=".1739"
       stop-color="#ffbd00"
       id="stop1049" />
    <stop
       offset=".2528"
       stop-color="#ffab00"
       id="stop1051" />
    <stop
       offset=".3295"
       stop-color="#ff9100"
       id="stop1053" />
    <stop
       offset=".4046"
       stop-color="#ff7000"
       id="stop1055" />
    <stop
       offset=".4786"
       stop-color="#ff4700"
       id="stop1057" />
    <stop
       offset=".5503"
       stop-color="#ff1800"
       id="stop1059" />
    <stop
       offset=".5822"
       stop-color="#f00"
       id="stop1061" />
    <stop
       offset="1"
       stop-color="#f00"
       id="stop1063" />
  </radialGradient>
  <radialGradient
     id="b"
     cx="0.56511724"
     cy="2.4847651"
     gradientTransform="scale(0.82532729,1.2116405)"
     r="22.783436"
     fx="0.56511724"
     fy="2.4847651"
     gradientUnits="userSpaceOnUse">
    <stop
       offset="0"
       stop-color="#00b4e6"
       id="stop1066" />
    <stop
       offset=".201"
       stop-color="#00b0e3"
       id="stop1068" />
    <stop
       offset=".3898"
       stop-color="#01a5db"
       id="stop1070" />
    <stop
       offset=".5737"
       stop-color="#0292cd"
       id="stop1072" />
    <stop
       offset=".7546"
       stop-color="#0377ba"
       id="stop1074" />
    <stop
       offset=".9316"
       stop-color="#0455a1"
       id="stop1076" />
    <stop
       offset="1"
       stop-color="#054696"
       id="stop1078" />
  </radialGradient>
  <g
     fill="none"
     id="g1103"
     transform="translate(-39.215551,-31.372442)">
    <path
       d="m 210.8519,173.14528 c 0,2.52469 -1.81563,5.65048 -3.99435,6.85271 l -77.82947,44.60269 c -2.17873,1.32245 -5.80996,1.32245 -7.98872,0 L 43.209909,179.99799 c -2.17874,-1.32246 -3.994358,-4.32802 -3.994358,-6.85271 V 83.819674 c 0,-2.52468 1.815618,-5.650475 3.994358,-6.852702 L 121.03936,32.36428 c 2.17876,-1.322451 5.80999,-1.322451 7.98872,0 l 77.82947,44.602692 c 2.17872,1.322452 3.99435,4.328022 3.99435,6.852702 z"
       fill="#ffffff"
       id="path1083"
       style="fill:#000000;fill-opacity:1;stroke-width:4.51675" />
    <g
       fill="#ffffff"
       transform="matrix(4.5167458,0,0,4.5167458,251.50261,85.573389)"
       id="g1095"
       style="fill:#000000;fill-opacity:1">
      <path
         d="m 85.839,0.684 h -15.48 v 3.605 h 5.536 v 15.474 h 4.381 V 4.289 h 5.563 z"
         id="path1085"
         style="fill:#000000;fill-opacity:1" />
      <path
         d="M 15.534,0.684 H 0.054 V 4.289 H 5.617 V 19.763 H 9.998 V 4.289 h 5.536 z"
         id="path1087"
         style="fill:#000000;fill-opacity:1" />
      <path
         d="m 60.334375,0.07894737 c -4.864375,0 -7.57875,3.05263153 -7.57875,7.44736843 V 19.763158 H 57.0825 V 7.4210526 c 0,-1.9210526 1.155625,-3.3947368 3.305625,-3.3947368 2.123125,0 3.27875,1.7368421 3.27875,3.3947368 V 19.763158 H 67.99375 V 7.5263158 c 0,-4.3947369 -2.795,-7.44736843 -7.659375,-7.44736843 z"
         id="path1089"
         style="fill:#000000;fill-opacity:1" />
      <path
         d="m 43.968,0.684 v 19.079 h 4.353 V 0.684 Z"
         id="path1091"
         style="fill:#000000;fill-opacity:1" />
      <path
         d="m 29.294,8.263 0.161,0.842 4.058,10.658 h 1.774 L 40.823,0.684 H 36.55 L 33.889,10.711 33.755,11.789 33.54,10.711 29.992,0.684 H 28.595 L 25.074,10.711 24.859,11.789 24.698,10.711 22.064,0.684 h -4.273 l 5.537,19.079 h 1.773 L 29.159,9.105 Z"
         id="path1093"
         style="fill:#000000;fill-opacity:1" />
    </g>
    <g
       transform="matrix(4.5167458,0,0,4.5167458,57.282535,85.573389)"
       id="g1101">
      <path
         d="m 23.002941,9.1282051 -4.420588,6.3076919 -2.276471,-3.384615 2.620589,-3.7948717 c 0.47647,-0.6666667 1.535294,-2.5384616 0.317647,-5.0769231 -0.979412,-2.0512821 -3.097059,-3.05128207 -4.95,-3.05128207 -1.852942,0 -3.891177,0.92307687 -4.9500003,3.05128207 -1.2176471,2.4358974 -0.1588236,4.3589743 0.2911764,5 0,0 1.4558829,2.0769228 2.6735299,3.8205128 l 1.985294,2.769231 2.964705,4.384615 c 0.02647,0.02564 0.502942,0.717949 1.32353,0.717949 0.794118,0 1.270588,-0.692308 1.35,-0.769231 l 6.961765,-9.9743589 z m -8.708823,0.1538462 c 0,0 -1.164706,-1.7179487 -1.905883,-2.8974359 -0.820588,-1.2820513 0.105883,-3.1794872 1.905883,-3.1794872 1.82647,0 2.72647,1.8974359 1.905882,3.1794872 -0.741177,1.2051282 -1.905882,2.8974359 -1.905882,2.8974359 z"
         fill="url(#a)"
         id="path1097"
         style="fill:url(#a)" />
      <path
         d="M 10.005882,15.230769 5.6382353,9.3076923 c 0,0 -1.1647059,-1.7179487 -1.9058824,-2.8974359 -0.8205882,-1.2820513 0.1058824,-3.1794872 1.9058824,-3.1794872 0.2382353,0 0.45,0.025641 0.6352941,0.076923 L 7.8088235,0.58974359 C 7.0941177,0.30769231 6.3529412,0.15384615 5.6382353,0.15384615 c -1.8529412,0 -3.8911765,0.92307695 -4.95000001,3.05128205 -1.21764706,2.4358974 -0.15882352,4.3589744 0.29117648,5 L 8.6029412,19.153846 c 0.052941,0.102564 0.5558823,0.794872 1.35,0.794872 0.8205878,0 1.2705878,-0.666667 1.3499998,-0.769231 l 2.302941,-3.384615 -1.985294,-2.820513 z"
         fill="url(#b)"
         id="path1099"
         style="fill:url(#b)" />
    </g>
  </g>
</svg>
